HIERARCHY
ROOT Hips
{
  OFFSET 3.13124 94.3669 -3.18751
  CHANNELS  6 Xposition Yposition Zposition Zrotation Xrotation Yrotation
  JOINT LeftUpLeg
  {
    OFFSET 8.64259 1.95398 -2.38835
    CHANNELS 3 Zrotation Xrotation Yrotation
    JOINT LeftLeg
    {
      OFFSET 43.7702 0 0
      CHANNELS 3 Zrotation Xrotation Yrotation
      JOINT LeftFoot
      {
        OFFSET 40.6238 0 0
        CHANNELS 3 Zrotation Xrotation Yrotation
        JOINT LeftToeBase
        {
          OFFSET 12.7242 0 0
          CHANNELS 3 Zrotation Xrotation Yrotation
          End Site
          {
            OFFSET 0 0 0
          }
        }
      }
    }
  }
  JOINT RightUpLeg
  {
    OFFSET -8.2249 1.95398 -2.59336
    CHANNELS 3 Zrotation Xrotation Yrotation
    JOINT RightLeg
    {
      OFFSET 43.5653 0 0
      CHANNELS 3 Zrotation Xrotation Yrotation
      JOINT RightFoot
      {
        OFFSET 40.6238 0 0
        CHANNELS 3 Zrotation Xrotation Yrotation
        JOINT RightToeBase
        {
          OFFSET 12.7242 0 0
          CHANNELS 3 Zrotation Xrotation Yrotation
          End Site
          {
            OFFSET 0 0 0
          }
        }
      }
    }
  }
  JOINT Spine
  {
    OFFSET 0.165834 0.87714 6.61349
    CHANNELS 3 Zrotation Xrotation Yrotation
    JOINT Spine1
    {
      OFFSET 7.38962 1.71661e-005 0
      CHANNELS 3 Zrotation Xrotation Yrotation
      JOINT Spine2
      {
        OFFSET 11.9445 1.14441e-005 0
        CHANNELS 3 Zrotation Xrotation Yrotation
        JOINT Spine3
        {
          OFFSET 14.7254 4.19617e-005 0
          CHANNELS 3 Zrotation Xrotation Yrotation
          JOINT Spine4
          {
            OFFSET 10.9679 0 0
            CHANNELS 3 Zrotation Xrotation Yrotation
            JOINT RightShoulder
            {
              OFFSET 2.46616 -1.6653 3.69651
              CHANNELS 3 Zrotation Xrotation Yrotation
              JOINT RightArm
              {
                OFFSET 13.0012 0 0
                CHANNELS 3 Zrotation Xrotation Yrotation
                JOINT RightForeArm
                {
                  OFFSET 28.7848 1.52588e-005 0
                  CHANNELS 3 Zrotation Xrotation Yrotation
                  JOINT RightHand
                  {
                    OFFSET 26.5688 1.52588e-005 0
                    CHANNELS 3 Zrotation Xrotation Yrotation
                    End Site
                    {
                      OFFSET 0 0 0
                    }
                  }
                }
              }
            }
            JOINT LeftShoulder
            {
              OFFSET 2.38034 -1.29275 -3.75231
              CHANNELS 3 Zrotation Xrotation Yrotation
              JOINT LeftArm
              {
                OFFSET 16.3182 6.10352e-005 0
                CHANNELS 3 Zrotation Xrotation Yrotation
                JOINT LeftForeArm
                {
                  OFFSET 27.0901 0 0
                  CHANNELS 3 Zrotation Xrotation Yrotation
                  JOINT LeftHand
                  {
                    OFFSET 24.5451 1.52588e-005 0
                    CHANNELS 3 Zrotation Xrotation Yrotation
                    End Site
                    {
                      OFFSET 0 0 0
                    }
                  }
                }
              }
            }
            JOINT Neck
            {
              OFFSET 5.0226 -0.0266342 0
              CHANNELS 3 Zrotation Xrotation Yrotation
              JOINT Head
              {
                OFFSET 6.69363 2.86102e-005 0
                CHANNELS 3 Zrotation Xrotation Yrotation
                End Site
                {
                  OFFSET 0 0 0
                }
              }
            }
          }
        }
      }
    }
  }
}
MOTION
Frames:	12
Frame Time:	0.0333333
-54.1671 93.0601 65.8688 91.1105 12.0761 90.7108 -178.679 24.6135 96.5758 -17.507 -32.4344 -2.25383 33.4549 28.4106 27.3724 28.7808 4.21048e-006 4.72346e-006 178.482 -6.44487 85.5112 -27.8123 32.8388 2.28236 62.0245 2.98197 1.8209 28.7808 1.33314e-005 1.73752e-005 0.168899 8.26075 -88.0993 10.3063 1.13054 4.19927 -1.37085 1.31529 4.14543 -23.8513 -0.185467 4.34576 -3.83865 -0.185469 4.34576 100.603 -48.9386 -84.4351 -8.97178 28.4283 -10.5513 -2.05964 26.4735 -5.34264 18.5529 0.362914 -2.78132 -90.5457 -29.408 72.0688 -0.568803 -30.8232 -48.9156 1.89243 -19.2851 -3.11066 63.5346 -21.5662 -36.9903 48.3671 5.77544 -42.9535 -44.9425 20.711 28.3469 
-55.9497 89.7062 67.6279 93.7565 13.6384 91.897 179.612 34.0265 99.5456 -35.0084 -32.3496 -1.90971 37.2063 26.8363 24.3622 28.7808 4.21048e-006 4.72346e-006 179.92 -7.22586 89.7552 -33.502 36.5536 2.71154 79.554 2.00165 0.436057 28.7808 1.33314e-005 1.73752e-005 0.309007 8.51472 -88.8705 9.80746 0.997786 3.23181 -1.86712 1.14099 3.18469 -24.37 -0.0162065 3.38203 -4.35739 -0.0162054 3.38201 100.694 -42.8848 -84.5325 -7.15406 27.9985 -11.7964 -1.89367 29.4241 -5.43639 21.512 0.21057 -3.90219 -91.1898 -34.2796 72.5728 -1.72914 -32.4145 -36.2 0.504254 -4.60591 -24.0574 67.9334 -18.3103 -30.0303 43.0386 10.1168 -36.78 -41.5927 20.7989 25.0313 
-57.132 88.2346 68.7074 94.7074 12.9728 92.6206 178.056 39.2713 102.481 -41.2671 -33.268 -1.89789 32.0836 23.8549 23.2976 28.7808 4.21048e-006 4.72346e-006 -179.57 -6.87254 91.5504 -35.5635 39.7518 3.07779 87.6938 0.123713 -0.508058 28.7808 1.33314e-005 1.73752e-005 0.609657 8.57141 -89.2958 9.69814 1.26447 2.55575 -1.97452 1.37568 2.49763 -24.4911 0.438366 2.83258 -4.47843 0.438346 2.83257 101.739 -37.5127 -82.8244 -4.21277 27.3206 -14.303 -1.74527 31.9134 -5.52561 22.2769 -0.728319 -8.55392 -91.2569 -35.922 72.9975 -0.644376 -34.7015 -23.5354 6.52836 5.01068 -40.5366 74.5283 -13.3586 -21.0845 39.7724 13.4285 -30.5229 -37.6859 21.4503 21.1844 
-57.9149 88.2675 69.3629 94.7264 10.6056 92.3864 176.87 42.1666 105.309 -42.7351 -33.2426 -1.85847 26.0228 18.7031 19.7536 28.7808 4.21048e-006 4.72346e-006 -179.959 -5.15421 90.7416 -36.9556 38.3237 2.86418 88.3305 0.103832 -0.526856 28.7808 1.33314e-005 1.73752e-005 0.836586 8.54016 -89.3602 9.74825 1.6999 2.43296 -1.92387 1.80539 2.35655 -24.4431 0.888697 2.8262 -4.43048 0.888668 2.82618 102.435 -37.2279 -81.535 -5.40508 28.4653 -16.852 -1.73874 32.0195 -5.52958 22.7399 -1.03922 -9.97686 -88.5675 -37.4081 78.1009 2.34909 -36.8648 -17.1185 10.5801 8.67717 -44.9536 77.3306 -14.4001 -21.3787 40.7227 14.55 -28.0359 -38.1389 21.9853 19.2877 
-58.1036 90.0092 69.5071 94.0708 9.65272 91.0255 176.743 43.3221 106.461 -39.5692 -31.1338 -1.6874 12.5267 11.8134 14.6447 28.7808 4.21048e-006 4.72346e-006 179.442 -5.00103 88.7603 -33.9595 36.422 2.74951 82.8185 -1.46829 -0.980424 28.7808 1.33314e-005 1.73752e-005 0.934035 8.37962 -89.3262 10.0614 1.82489 2.61562 -1.61077 1.93821 2.53282 -24.1282 0.954961 3.0428 -4.11554 0.954943 3.04278 102.051 -35.6343 -82.2425 -4.23978 28.1798 -17.7501 -1.98017 27.907 -5.38665 14.073 -0.471385 -8.55188 -85.3983 -35.2967 83.2846 3.94676 -37.4642 -8.64858 7.82518 4.55918 -50.0287 69.1989 -16.5417 -27.0494 39.4222 15.8614 -26.0881 -36.5254 22.5722 17.9149 
-57.6857 92.9214 69.4332 92.5654 9.90523 88.1889 178.472 41.2963 104.941 -30.6847 -19.5133 -0.863357 0.505065 -0.83977 -4.9453 28.7808 4.21048e-006 4.72346e-006 178.079 -5.57747 85.2003 -27.9122 34.9942 2.62504 72.0825 -3.32876 -1.78124 28.7808 1.33314e-005 1.73752e-005 0.749655 7.95347 -90.2251 10.9406 1.04232 0.846481 -0.730212 1.07853 0.799791 -23.2647 0.738019 1.1206 -3.25208 0.738005 1.12059 100.613 -13.6211 -86.52 4.88402 23.1251 -12.8498 -1.89719 29.3628 -5.43433 9.71334 -0.320144 -8.31767 -85.3418 -51.673 86.0097 12.7279 -39.8012 -7.89076 4.28589 2.40301 -38.2481 62.6499 -18.3071 -32.6277 18.3271 28.5209 9.76868 -13.4625 25.4473 -4.32294 
-56.8615 96.4365 68.8165 91.2032 10.4348 85.8775 -179.861 38.3064 101.998 -21.0469 -22.9251 -1.17763 -5.99011 -0.537278 -5.3137 28.7808 4.21048e-006 4.72346e-006 176.181 -6.35106 81.3965 -20.5948 30.9837 2.13472 54.0437 -3.86031 -2.40604 28.7808 1.33314e-005 1.73752e-005 0.766493 7.81019 -89.7635 11.222 1.2867 1.63736 -0.449291 1.3575 1.57916 -22.978 0.729711 1.94811 -2.96535 0.729693 1.9481 101.551 -17.2776 -83.7098 3.59462 23.4836 -11.7065 -1.89095 29.4703 -5.43798 14.0261 -0.540484 -9.13333 -81.9609 -49.0564 90.7602 15.3776 -33.8775 -19.6057 1.32034 -10.4695 -7.29578 52.1864 -22.9272 -47.1485 21.8362 27.5528 5.43312 -17.7212 25.4497 -2.74625 
-56.065 99.7964 68.1251 89.5407 10.9741 85.7508 -177.295 31.9912 100.633 -5.46996 -34.3793 -2.47091 -8.51277 1.74398 -0.564357 28.7808 4.21048e-006 4.72346e-006 174.141 -8.7765 79.6454 -8.06124 26.0201 1.71812 31.0709 -5.45808 -4.55514 28.7808 1.33314e-005 1.73752e-005 0.870042 7.54586 -89.4584 11.7471 1.58344 1.92437 0.0758173 1.66677 1.85247 -22.4513 0.934944 2.31355 -2.43866 0.934925 2.31355 101.718 -20.9742 -83.1895 1.40805 23.7308 -7.79579 -2.06052 26.457 -5.34224 16.1627 -0.260798 -6.66613 -80.8821 -45.5214 92.196 13.7325 -31.2826 -19.093 2.14977 -6.24802 -3.16245 51.131 -17.4927 -38.1728 22.5907 25.4313 0.165233 -21.2725 24.4956 1.0278 
-54.9244 101.143 67.1586 88.0506 12.0073 86.8522 -177.385 33.9728 101.497 -5.48207 -34.5351 -2.48401 -5.99774 1.99711 0.0742371 28.7808 4.21048e-006 4.72346e-006 174.524 -6.8445 80.1668 -7.88785 23.9824 1.57146 27.8367 -4.30998 -3.54489 28.7808 1.33314e-005 1.73752e-005 1.06682 7.28992 -89.5906 12.2464 1.586 2.00272 0.574989 1.67257 1.931 -21.9508 0.907708 2.38659 -1.93813 0.907692 2.38659 102.352 -25.8563 -81.675 0.486777 23.8391 -6.39661 -2.15914 24.6197 -5.28927 7.12685 -0.0658576 -5.49962 -79.4 -41.8484 94.4281 10.9737 -28.8378 -14.9691 2.39687 6.41727 -3.43749 52.5532 -13.2292 -29.4392 24.929 23.4459 -5.62814 -25.9631 23.743 4.74942 
-53.8369 101.616 66.3631 87.2909 12.9617 88.0172 -177.274 35.216 102.412 -5.33541 -32.8166 -2.31171 -3.11998 3.16221 2.45269 28.7808 4.21048e-006 4.72346e-006 175.073 -4.99659 81.4335 -8.73853 14.933 0.925676 31.3197 -0.71909 0.320094 28.7808 1.33314e-005 1.73752e-005 1.13621 7.16365 -89.8999 12.4942 1.42102 1.82749 0.822832 1.50005 1.76319 -21.7046 0.806241 2.16996 -1.69198 0.806212 2.16992 102.67 -28.0771 -81.0027 2.05979 23.1196 -5.5491 -2.46526 18.5164 -5.14386 -6.81011 -0.112105 -3.41592 -78.2866 -40.1646 96.2647 8.10695 -26.7912 -11.947 2.66123 17.1079 -3.71406 60.2139 -7.95689 -17.2466 25.0311 23.0544 -6.81727 -26.413 23.6205 5.42924 
-52.835 101.033 65.8195 88.3128 14.7386 88.956 -176.997 35.0803 103.141 -5.4554 -34.1704 -2.45615 1.55635 5.19329 6.01286 28.7808 4.21048e-006 4.72346e-006 175.985 -5.94155 83.2115 -8.15983 9.1215 0.55066 38.4288 4.13141 4.60865 28.7808 1.33314e-005 1.73752e-005 0.918117 7.25549 -90.0317 12.3261 1.04425 1.38444 0.654894 1.10418 1.33706 -21.8756 0.57992 1.63428 -1.86298 0.579925 1.63428 102.808 -28.5331 -80.7184 3.85388 22.2428 -3.94431 -2.70886 13.2547 -5.04862 -15.3446 -0.350308 -2.51959 -77.8625 -40.1653 96.9925 4.03246 -25.1758 -12.1694 2.56288 13.4236 -3.61191 57.5365 -1.98104 -7.66925 23.7327 23.5086 -5.75442 -25.1232 23.7984 4.99519 
-51.747 99.2692 65.1523 89.1059 17.6189 89.7705 -177.032 35.2502 103.316 -6.0395 -39.9438 -3.12796 8.19027 7.29152 8.78401 28.7808 4.21048e-006 4.72346e-006 176.981 -6.55592 85.0105 -9.03144 9.94947 0.605626 39.5095 3.28547 3.71609 28.7808 1.33314e-005 1.73752e-005 0.723923 7.35184 -90.3353 12.1424 0.48318 1.00202 0.471133 0.526754 0.981029 -22.061 0.159497 1.09995 -2.04835 0.159484 1.09993 102.544 -28.1352 -81.2708 5.87924 21.2288 -1.42858 -2.68977 13.6787 -5.05537 -20.9035 -0.273721 -3.6978 -78.522 -40.7078 95.8755 1.33087 -23.6287 -9.85188 2.52977 12.1141 -3.57729 54.0515 0.567594 -3.14575 21.7492 23.8462 -4.83841 -23.0535 23.8234 5.23696 
